<svg xmlns="http://www.w3.org/2000/svg" version="1.1"
    xmlns:xlink="http://www.w3.org/1999/xlink"
    xmlns:svgjs="http://svgjs.dev/svgjs" width="1000" height="1000" viewBox="0 0 1000 1000">
    <g transform="matrix(1,0,0,1,-0.14221556886212738,-0.14221556886229791)">
        <svg viewBox="0 0 334 334" data-background-color="#ffffff" preserveAspectRatio="xMidYMid meet" height="1000" width="1000"
            xmlns="http://www.w3.org/2000/svg"
            xmlns:xlink="http://www.w3.org/1999/xlink">
            <g id="tight-bounds" transform="matrix(1,0,0,1,0.04749999999998522,0.04750000000001364)">
                <svg viewBox="0 0 333.90454557049503 333.90454557049503" height="333.90454557049503" width="333.90454557049503">
                    <g>
                        <svg></svg>
                    </g>
                    <g>
                        <svg viewBox="0 0 333.90454557049503 333.90454557049503" height="333.90454557049503" width="333.90454557049503">
                            <g>
                                <path d="M0 166.952c0-92.205 74.747-166.952 166.952-166.952 92.205 0 166.952 74.747 166.953 166.952 0 92.205-74.747 166.952-166.953 166.953-92.205 0-166.952-74.747-166.952-166.953zM166.952 324.508c87.016 0 157.556-70.54 157.556-157.556 0-87.016-70.54-157.556-157.556-157.555-87.016 0-157.556 70.54-157.555 157.555 0 87.016 70.54 157.556 157.555 157.556z" data-fill-palette-color="tertiary" fill="#4790fc" stroke="transparent"></path>
                                <ellipse rx="160.27418187383762" ry="160.27418187383762" cx="166.95227278524752" cy="166.95227278524752" fill="#4790fc" stroke="transparent" stroke-width="0" fill-opacity="1" data-fill-palette-color="tertiary"></ellipse>
                            </g>
                            <g transform="matrix(1,0,0,1,108.68637741236658,71.17305217166896)">
                                <svg viewBox="0 0 116.53179074576187 191.55844122715712" height="191.55844122715712" width="116.53179074576187">
                                    <g>
                                        <svg viewBox="0 0 116.53179074576187 191.55844122715712" height="191.55844122715712" width="116.53179074576187">
                                            <g>
                                                <svg viewBox="0 0 213.15844122715714 350.3962178438405" height="191.55844122715712" width="116.53179074576187">
                                                    <g transform="matrix(1,0,0,1,0,159.80050855716237)">
                                                        <svg viewBox="0 0 213.15844122715714 190.5957092866781" height="190.5957092866781" width="213.15844122715714">
                                                            <g id="textblocktransform">
                                                                <svg viewBox="0 0 213.15844122715714 190.5957092866781" height="190.5957092866781" width="213.15844122715714" id="textblock">
                                                                    <g>
                                                                        <svg viewBox="0 0 213.15844122715714 190.5957092866781" height="190.5957092866781" width="213.15844122715714">
                                                                            <g transform="matrix(1,0,0,1,0,0)">
                                                                                <svg width="213.15844122715714" viewBox="3.0799999237060547 -38.650001525878906 43.81999969482422 39.19000244140625" height="190.5957092866781" data-palette-color="#ffffff">
                                                                                    <path d="M3.08-5.08L7.2-11.35Q9.28-10.18 11.41-9.24 13.55-8.3 15.84-7.65 18.14-7.01 20.67-6.67 23.19-6.32 26.05-6.32L26.05-6.32Q29.49-6.32 31.91-6.77 34.33-7.23 35.85-8.02 37.38-8.81 38.07-9.91 38.77-11.01 38.77-12.3L38.77-12.3Q38.77-14.38 37.04-15.59 35.3-16.8 31.69-16.8L31.69-16.8Q30.1-16.8 28.34-16.59 26.59-16.38 24.79-16.14 23-15.89 21.25-15.69 19.51-15.48 17.97-15.48L17.97-15.48Q15.41-15.48 13.05-16.14 10.69-16.8 8.87-18.12 7.06-19.43 5.98-21.41 4.91-23.39 4.91-26.03L4.91-26.03Q4.91-27.59 5.33-29.13 5.76-30.66 6.7-32.07 7.64-33.47 9.13-34.68 10.62-35.89 12.73-36.77 14.84-37.65 17.61-38.15 20.39-38.65 23.93-38.65L23.93-38.65Q26.49-38.65 29.08-38.37 31.67-38.09 34.12-37.57 36.57-37.06 38.84-36.34 41.11-35.62 43.07-34.74L43.07-34.74 39.67-28.49Q38.06-29.2 36.21-29.8 34.35-30.4 32.32-30.83 30.3-31.27 28.14-31.53 25.98-31.79 23.73-31.79L23.73-31.79Q20.53-31.79 18.47-31.32 16.41-30.86 15.19-30.14 13.96-29.42 13.49-28.53 13.01-27.64 13.01-26.76L13.01-26.76Q13.01-25.05 14.55-23.96 16.09-22.88 19.24-22.88L19.24-22.88Q20.51-22.88 22.16-23.06 23.8-23.24 25.62-23.46 27.44-23.68 29.33-23.86 31.23-24.05 33.01-24.05L33.01-24.05Q36.38-24.05 38.98-23.29 41.58-22.53 43.33-21.13 45.09-19.73 46-17.74 46.9-15.75 46.9-13.28L46.9-13.28Q46.9-9.99 45.37-7.41 43.85-4.83 41.03-3.06 38.21-1.29 34.23-0.38 30.25 0.54 25.37 0.54L25.37 0.54Q22.14 0.54 19.07 0.13 15.99-0.27 13.17-1.01 10.35-1.76 7.8-2.8 5.25-3.83 3.08-5.08L3.08-5.08Z" opacity="1" transform="matrix(1,0,0,1,0,0)" fill="#ffffff" class="wordmark-text-0" data-fill-palette-color="quaternary" id="text-0"></path>
                                                                                </svg>
                                                                            </g>
                                                                        </svg>
                                                                    </g>
                                                                </svg>
                                                            </g>
                                                        </svg>
                                                    </g>
                                                    <g transform="matrix(1,0,0,1,40.71326227438702,0)">
                                                        <svg viewBox="0 0 131.7319166783831 114.80543589160055" height="114.80543589160055" width="131.7319166783831">
                                                            <g>
                                                                <svg xmlns="http://www.w3.org/2000/svg"
                                                                    xmlns:xlink="http://www.w3.org/1999/xlink" version="1.0" x="0" y="0" viewBox="1.1180000305175781 4.118575572967529 47.92100143432617 41.76354217529297" enable-background="new 0 0 50 50" xml:space="preserve" height="114.80543589160055" width="131.7319166783831" class="icon-icon-0" data-fill-palette-color="quaternary" id="icon-0">
                                                                    <g fill="#ffffff" data-fill-palette-color="quaternary">
                                                                        <g fill="#ffffff" data-fill-palette-color="quaternary">
                                                                            <polygon fill="#ffffff" points="10.821,24.951 21,32.193 21,39.035 1.118,24.891 21,11.118 21,17.9   " data-fill-palette-color="quaternary"></polygon>
                                                                        </g>
                                                                        <g fill="#ffffff" data-fill-palette-color="quaternary">
                                                                            <polygon fill="#ffffff" points="49.039,25.277 35.815,16.063 34.219,21.712 39.475,25.338 31.411,30.97 29,38.79 29,39.424   " data-fill-palette-color="quaternary"></polygon>
                                                                        </g>
                                                                        <rect x="25.577" y="3.983" transform="matrix(0.9606 0.278 -0.278 0.9606 8.0575 -6.8179)" fill="#ffffff" width="4.981" height="42.035" data-fill-palette-color="quaternary"></rect>
                                                                    </g>
                                                                </svg>
                                                            </g>
                                                        </svg>
                                                    </g>
                                                    <g></g>
                                                </svg>
                                            </g>
                                        </svg>
                                    </g>
                                </svg>
                            </g>
                        </svg>
                    </g>
                    <defs></defs>
                </svg>
                <rect width="333.90454557049503" height="333.90454557049503" fill="none" stroke="none" visibility="hidden"></rect>
            </g>
        </svg>
    </g>
</svg>